<svg width="34" height="34" viewBox="0 0 34 34" fill="none" xmlns="http://www.w3.org/2000/svg">
<rect width="34" height="34" rx="10" fill="#232425" style="fill:#232425;fill:color(display-p3 0.1381 0.1423 0.1436);fill-opacity:1;"/>
<path d="M23.816 18.5799C26.108 20.7179 27.362 22.5799 26.908 23.4799C26.163 24.9399 21.125 23.2209 15.653 19.6419C10.183 16.0629 6.349 11.9779 7.093 10.5189C7.557 9.60894 10.019 10.0749 12.896 11.3239M10 17C10 17.9193 10.1811 18.8295 10.5328 19.6788C10.8846 20.5281 11.4002 21.2997 12.0503 21.9497C12.7003 22.5998 13.4719 23.1154 14.3212 23.4672C15.1705 23.8189 16.0807 24 17 24C17.9193 24 18.8295 23.8189 19.6788 23.4672C20.5281 23.1154 21.2997 22.5998 21.9497 21.9497C22.5998 21.2997 23.1154 20.5281 23.4672 19.6788C23.8189 18.8295 24 17.9193 24 17C24 16.0807 23.8189 15.1705 23.4672 14.3212C23.1154 13.4719 22.5998 12.7003 21.9497 12.0503C21.2997 11.4002 20.5281 10.8846 19.6788 10.5328C18.8295 10.1811 17.9193 10 17 10C16.0807 10 15.1705 10.1811 14.3212 10.5328C13.4719 10.8846 12.7003 11.4002 12.0503 12.0503C11.4002 12.7003 10.8846 13.4719 10.5328 14.3212C10.1811 15.1705 10 16.0807 10 17Z" stroke="white" style="stroke:white;stroke-opacity:1;" stroke-width="2" stroke-linecap="round" stroke-linejoin="round"/>
</svg>
